<?xml version="1.0" standalone="no"?>
<!DOCTYPE svg PUBLIC "-//W3C//DTD SVG 20010904//EN"
 "http://www.w3.org/TR/2001/REC-SVG-20010904/DTD/svg10.dtd">
<svg version="1.0" xmlns="http://www.w3.org/2000/svg"
 width="500" height="500" viewBox="0 0 500 500"
 preserveAspectRatio="xMidYMid meet">

<g transform="translate(0.000000,500.000000) scale(0.100000,-0.100000)"
fill="currentColor" stroke="none">
<path d="M1662 4958 c-61 -89 -118 -221 -160 -368 -23 -83 -26 -114 -27 -240
0 -174 10 -203 108 -314 115 -131 172 -200 157 -191 -8 5 -48 30 -88 57 -116
78 -106 94 -99 -153 7 -195 17 -333 33 -446 6 -41 8 -43 240 -208 214 -153
285 -208 202 -157 -86 53 -343 200 -346 198 -1 -2 13 -40 32 -84 19 -45 47
-118 61 -164 23 -72 26 -94 21 -162 l-6 -80 40 -52 c42 -53 137 -141 224 -207
27 -20 47 -37 44 -37 -3 0 -67 27 -142 60 -76 33 -139 60 -142 60 -7 0 36 -81
70 -130 16 -25 60 -79 96 -120 63 -73 64 -74 25 -51 -22 14 -60 40 -84 59 -41
33 -43 34 -36 11 17 -56 77 -126 170 -197 17 -13 22 -21 12 -18 -10 3 -24 6
-31 6 -7 0 -37 15 -68 34 -65 39 -65 33 -3 -64 49 -75 124 -150 209 -209 56
-39 58 -41 30 -42 -16 0 -45 -6 -64 -13 l-34 -13 59 -11 c33 -7 89 -26 123
-42 35 -17 68 -30 74 -30 11 0 8 71 -13 350 -32 437 -108 933 -213 1395 -70
307 -194 759 -286 1044 -22 69 -38 126 -37 128 7 6 158 -317 221 -472 246
-608 438 -1431 547 -2343 l12 -103 56 56 c70 71 126 98 202 99 l58 1 -21 22
c-23 24 -75 43 -120 43 -23 0 -28 5 -28 24 0 47 69 163 141 235 l70 71 -43
-17 c-24 -9 -60 -27 -82 -41 l-38 -24 23 42 c13 23 46 67 74 98 l51 57 -12 45
c-24 90 -7 425 31 595 l6 30 -18 -21 c-11 -12 -93 -108 -182 -213 -90 -105
-165 -191 -167 -191 -3 0 15 26 38 58 24 31 91 124 149 205 l106 149 7 132 c6
120 5 136 -13 176 -39 87 -20 213 53 348 41 75 49 80 -170 -113 -207 -182
-283 -246 -259 -215 11 14 66 83 123 153 l103 127 -16 114 c-14 105 -58 294
-74 323 -4 8 -49 -41 -121 -133 -149 -189 -154 -195 -142 -169 6 11 60 105
121 209 l111 189 -44 83 c-61 115 -136 210 -263 336 -142 142 -427 365 -599
471 -9 5 -23 -7 -42 -35z"/>
<path d="M2075 3830 c3 -14 28 -116 56 -228 137 -560 223 -1085 263 -1612 17
-223 22 -387 11 -398 -27 -27 -51 -141 -40 -190 3 -17 26 -56 51 -87 24 -32
44 -61 44 -65 0 -4 -29 -10 -64 -13 -76 -7 -148 -38 -166 -72 -7 -14 -10 -37
-7 -54 6 -29 5 -31 -23 -31 -76 0 -196 -69 -218 -127 -15 -37 -122 -547 -122
-579 0 -14 7 -38 15 -54 15 -29 15 -29 -17 -34 -18 -3 -61 -7 -96 -10 -61 -4
-81 -10 -70 -21 2 -3 40 -8 84 -12 79 -7 78 -7 -118 -25 -108 -10 -210 -23
-225 -29 -25 -9 -26 -11 -10 -20 24 -14 233 -38 332 -39 55 0 75 -3 65 -10 -8
-5 -32 -10 -52 -10 -62 0 -186 -22 -205 -35 -15 -12 -13 -14 22 -24 66 -19
334 -39 625 -46 492 -12 1120 25 1120 65 0 13 -66 29 -150 37 -91 8 -64 20 50
22 86 1 337 27 363 37 22 8 22 20 0 28 -10 4 -85 14 -168 22 -82 8 -154 16
-160 18 -5 1 33 6 85 9 153 11 140 27 -37 43 -40 3 -73 7 -73 9 0 1 7 16 15
31 8 16 15 37 15 46 0 29 -118 576 -129 595 -26 50 -113 98 -195 109 -43 6
-45 8 -39 35 13 69 -58 112 -215 131 -118 14 -105 -5 -122 183 -63 699 -218
1535 -389 2095 -49 162 -117 359 -106 310z m419 -2326 c19 -18 19 -20 6 -45
-18 -32 -80 -19 -80 17 0 17 28 44 45 44 7 0 21 -7 29 -16z m290 -318 c35 -15
66 -50 66 -75 0 -11 -5 -8 -16 7 -22 32 -88 63 -169 78 l-70 14 78 -5 c42 -3
92 -11 111 -19z m-459 -111 c17 -4 86 -13 155 -21 l125 -13 -130 3 c-110 2
-137 6 -175 24 -43 21 -40 22 25 7z m44 -76 c175 -16 180 -21 33 -35 -149 -13
-148 -12 -181 -100 -26 -67 -41 -181 -42 -317 l-1 -112 -14 50 c-26 96 -39
257 -27 352 6 49 9 90 8 92 -2 2 -17 -6 -33 -17 -27 -19 -45 -43 -101 -132
l-22 -35 6 40 c9 53 52 148 79 174 57 54 95 59 295 40z m-474 -819 c4 -6 -19
-10 -62 -10 -48 0 -63 3 -53 10 20 13 107 13 115 0z m749 -96 c36 -14 -1 -24
-89 -24 -85 0 -125 10 -93 23 19 8 163 8 182 1z"/>
</g>
</svg>
